<?xml version="1.0" encoding="UTF-8" standalone="no"?>
<!-- Created with Inkscape (http://www.inkscape.org/) -->

<svg width="148.59119mm" height="109.99116mm" viewBox="0 0 148.5912 109.99116" version="1.1" id="svg1"
   xmlns="http://www.w3.org/2000/svg" xmlns:svg="http://www.w3.org/2000/svg">
   <defs id="defs1" />
   <g id="g6" transform="translate(-1.0075651e-5,2.4450348e-4)">
      <path style="color:#000000;fill:#000000;stroke-linejoin:round;-inkscape-stroke:none"
         d="M 107.14453,62.664062 C 90.218382,62.695761 73.677541,67.73098 59.605469,77.136719 35.721817,93.026026 21.350181,119.8099 21.314453,148.49609 a 4.0878588,4.0878588 0 0 0 0,0.01 c 0.03604,28.68586 14.407637,55.4683 38.291016,71.35742 14.072072,9.40574 30.612914,14.44096 47.539061,14.47266 a 4.0878588,4.0878588 0 0 0 0.008,0 c 17.00647,-0.001 33.62967,-5.05395 47.75977,-14.51758 23.78947,-15.93073 38.07501,-42.68749 38.07617,-71.31836 a 4.0878588,4.0878588 0 0 0 0,-0.002 4.0878588,4.0878588 0 0 0 0,-0.002 4.0878588,4.0878588 0 0 0 0,-0.002 c -0.0416,-28.58408 -14.31829,-55.283861 -38.06641,-71.191406 l -0.008,-0.0039 C 140.79926,67.79508 124.17638,62.701243 107.16016,62.664062 a 4.0878588,4.0878588 0 0 0 -0.0156,0 z m 0.006,8.173829 c 15.39627,0.03519 30.4347,4.645671 43.20508,13.246093 a 4.0878588,4.0878588 0 0 0 0.008,0.0059 c 21.49842,14.396472 34.41089,38.540626 34.44922,64.414066 -0.002,25.91165 -12.91901,50.10368 -34.44922,64.52148 a 4.0878588,4.0878588 0 0 0 0,0.002 c -12.78226,8.56092 -27.81901,13.13193 -43.20312,13.13477 -15.317487,-0.0287 -30.283695,-4.58643 -43.017582,-13.09961 a 4.0878588,4.0878588 0 0 0 -0.0078,-0.006 C 42.521148,198.67754 29.526118,174.46512 29.490234,148.50586 V 148.5 c -1e-6,-0.001 2e-6,-0.003 0,-0.004 0.0356,-25.95955 13.030666,-50.173466 34.644532,-64.552731 a 4.0878588,4.0878588 0 0 0 0.0078,-0.0059 C 76.873752,75.426133 91.836321,70.8685 107.15039,70.837891 Z"
         id="path1" transform="matrix(0,-0.5852904,0.5852904,0,-15.798235,115.08934)" />
      <path style="color:#000000;display:inline;fill:#000000;stroke-linejoin:round;-inkscape-stroke:none"
         d="m 105.125,63.150391 a 4.0878588,4.0878588 0 0 0 -2.06055,3.492187 V 230.35742 a 4.0878588,4.0878588 0 0 0 8.17383,0 V 66.642578 A 4.0878588,4.0878588 0 0 0 105.125,63.150391 Z M 59.84375,76.945312 A 4.0878588,4.0878588 0 0 0 57.783203,80.4375 v 136.125 a 4.0878588,4.0878588 0 0 0 6.113281,3.49219 4.0878588,4.0878588 0 0 0 2.060547,-3.49219 V 80.4375 A 4.0878588,4.0878588 0 0 0 59.84375,76.945312 Z m 90.76758,0.136719 a 4.0878588,4.0878588 0 0 0 -2.06055,3.492188 V 216.42578 a 4.0878588,4.0878588 0 0 0 6.11328,3.49219 4.0878588,4.0878588 0 0 0 2.06055,-3.49219 V 80.574219 a 4.0878588,4.0878588 0 0 0 -6.11328,-3.492188 z"
         id="path4" transform="matrix(0,-0.5852904,0.5852904,0,-15.798235,115.08934)" />
      <path id="path40"
         style="color:#000000;fill:#000000;fill-opacity:1;stroke:none;stroke-linejoin:round;-inkscape-stroke:none"
         d="m 189.05644,151.62329 -0.0954,-8.17584 -163.71535,1.92918 0.09624,8.17583 z"
         transform="matrix(0,-0.5852904,0.5852904,0,-15.798235,115.08934)" />
      <path style="color:#000000;fill:#000000;stroke-linejoin:round;-inkscape-stroke:none"
         d="m 185.25586,145.91211 c -13.20063,30.52958 -46.12921,43.94617 -79.30859,43.13672 C 72.767883,188.23938 40.364594,172.85667 29.017578,147.7793 l -7.447266,3.37109 c 13.191113,29.1529 48.636889,45.2033 84.175778,46.07031 35.5389,0.86702 72.19746,-13.7965 87.01368,-48.0625 z"
         id="path38" transform="matrix(0,-0.5852904,0.5852904,0,-15.798235,115.08934)" />
      <path style="color:#000000;fill:#000000;stroke-linejoin:round;-inkscape-stroke:none"
         d="m 100.9707,102.69531 c -31.345564,1.41852 -62.828802,14.62779 -79.265622,44.81446 l 7.179688,3.91015 c 16.934462,-31.10059 51.769646,-42.44122 84.980464,-40.46484 33.21083,1.97638 63.70156,17.87638 71.32032,38.02539 l 7.64648,-2.89063 c -9.54875,-25.25319 -43.056,-41.1868 -78.48047,-43.29492 -4.42806,-0.26351 -8.90292,-0.30225 -13.38086,-0.0996 z"
         id="path39" transform="matrix(0,-0.5852904,0.5852904,0,-15.798235,115.08934)" />
   </g>
   <g id="g5" transform="translate(-1.0075651e-5,2.4450348e-4)">
      <path style="color:#000000;display:inline;fill:#000000;stroke-linejoin:round;-inkscape-stroke:none"
         d="m 168.01367,26.992187 a 4.0878588,4.0878588 0 0 0 -3.65039,2.212891 l -19.44531,37.710938 7.26562,3.748046 15.77539,-30.589843 21.37891,42.341797 7.29883,-3.683594 -24.99024,-49.496094 a 4.0878588,4.0878588 0 0 0 -3.63281,-2.244141 z"
         id="path49" transform="matrix(0,-0.5852904,0.5852904,0,-15.798235,115.08934)" />
      <path style="color:#000000;fill:#000000;stroke-linejoin:round;-inkscape-stroke:none"
         d="m 13.619141,198.03711 -4.2460941,6.98633 61.8710941,37.59961 4.24414,-6.98633 z" id="path52"
         transform="matrix(0,-0.5852904,0.5852904,0,-15.798235,115.08934)" />
      <path style="color:#000000;fill:#000000;stroke-linejoin:round;-inkscape-stroke:none"
         d="m 16.355469,218.88086 -7.6445315,2.89844 21.4121095,56.45117 a 4.0879036,4.0879036 0 0 0 7.259765,0.76172 L 61.220703,241.91406 54.34375,237.49219 34.890625,267.75 Z"
         id="path54" transform="matrix(0,-0.5852904,0.5852904,0,-15.798235,115.08934)" />
   </g>
</svg>