<svg width="800" height="300" xmlns="http://www.w3.org/2000/svg" fill="#000">


    <!-- <rect x="0" y="0" width="800" height="1000" fill="url(#gradient)" /> -->

    <g stroke="#000" stroke-width=".5" transform="translate(0, 200) scale(1, -1)">
        <line x1="0" y1="20" x2="800" y2="20" stroke-width="2" />
        <line x1="0" y1="30" x2="800" y2="30" stroke-width="3" />
        <line x1="0" y1="40" x2="800" y2="40" stroke-width="4" />
        <line x1="0" y1="50" x2="800" y2="50" stroke-width="5" />
        <line x1="0" y1="60" x2="800" y2="60" stroke-width="8" />
        <line x1="0" y1="70" x2="800" y2="70" stroke-width="9" />
        <line x1="0" y1="80" x2="800" y2="80" stroke-width="10" />
        <line x1="0" y1="90" x2="800" y2="90" stroke-width="11" />
        <line x1="0" y1="100" x2="800" y2="100" stroke-width="12" />
        <line x1="0" y1="110" x2="800" y2="110" stroke-width="13" />
        <line x1="0" y1="120" x2="800" y2="120" stroke-width="14" />
        <line x1="0" y1="130" x2="800" y2="130" stroke-width="15" />
        <line x1="0" y1="140" x2="800" y2="140" stroke-width="16" />
        <line x1="0" y1="150" x2="800" y2="150" stroke-width="17" />
        <line x1="0" y1="160" x2="800" y2="160" stroke-width="18" />
        <line x1="0" y1="170" x2="800" y2="170" stroke-width="19" />
        <line x1="0" y1="180" x2="800" y2="180" stroke-width="20" />
        <line x1="0" y1="190" x2="800" y2="190" stroke-width="21" />
        <line x1="0" y1="200" x2="800" y2="200" stroke-width="22" />
        <line x1="0" y1="210" x2="800" y2="210" stroke-width="23" />
        <line x1="0" y1="220" x2="800" y2="220" stroke-width="24" />
        <line x1="0" y1="230" x2="800" y2="230" stroke-width="25" />
        <line x1="0" y1="240" x2="800" y2="240" stroke-width="26" />
        <line x1="0" y1="250" x2="800" y2="250" stroke-width="27" />
        <line x1="0" y1="260" x2="800" y2="260" stroke-width="28" />
        <line x1="0" y1="270" x2="800" y2="270" stroke-width="29" />
        <line x1="0" y1="280" x2="800" y2="280" stroke-width="30" />
        <line x1="0" y1="20" x2="800" y2="20" stroke-width="2" />
        <line x1="0" y1="15" x2="800" y2="15" stroke-width="2" />
        <line x1="0" y1="8" x2="800" y2="8" stroke-width="1.5" />
        <line x1="0" y1="3" x2="800" y2="3" stroke-width="1" />
        <line x1="0" y1="0" x2="800" y2="0" stroke-width=".5" />

    </g>
</svg>